<mxfile host="app.diagrams.net" modified="2020-11-02T06:16:59.292Z" agent="5.0 (Windows NT 10.0; Win64; x64) AppleWebKit/537.36 (KHTML, like Gecko) Chrome/86.0.4240.111 Safari/537.36" etag="ahOTWUXj9JjJJApAUp9C" version="13.8.8" type="github">
  <diagram id="QlpivooPiczW2APqJMBy" name="Page-1">
    <mxGraphModel dx="2062" dy="1066" grid="1" gridSize="10" guides="1" tooltips="1" connect="1" arrows="1" fold="1" page="1" pageScale="1" pageWidth="827" pageHeight="1169" math="0" shadow="0">
      <root>
        <mxCell id="0" />
        <mxCell id="1" parent="0" />
        <mxCell id="JF8zU6eetf7OwE7bHXdM-4" style="edgeStyle=orthogonalEdgeStyle;rounded=0;orthogonalLoop=1;jettySize=auto;html=1;" edge="1" parent="1" source="JF8zU6eetf7OwE7bHXdM-1" target="JF8zU6eetf7OwE7bHXdM-3">
          <mxGeometry relative="1" as="geometry" />
        </mxCell>
        <mxCell id="JF8zU6eetf7OwE7bHXdM-1" value="10点运行脚本" style="rounded=1;whiteSpace=wrap;html=1;comic=0;fontFamily=Comic Sans MS;fillColor=#f5f5f5;strokeColor=#666666;fontColor=#333333;" vertex="1" parent="1">
          <mxGeometry x="270" y="280" width="110" height="60" as="geometry" />
        </mxCell>
        <mxCell id="JF8zU6eetf7OwE7bHXdM-7" style="edgeStyle=orthogonalEdgeStyle;rounded=0;orthogonalLoop=1;jettySize=auto;html=1;exitX=0;exitY=0.5;exitDx=0;exitDy=0;" edge="1" parent="1" source="JF8zU6eetf7OwE7bHXdM-3" target="JF8zU6eetf7OwE7bHXdM-6">
          <mxGeometry relative="1" as="geometry" />
        </mxCell>
        <mxCell id="JF8zU6eetf7OwE7bHXdM-3" value="" style="rhombus;whiteSpace=wrap;html=1;comic=0;fillColor=#f8cecc;strokeColor=#b85450;" vertex="1" parent="1">
          <mxGeometry x="277.5" y="380" width="95" height="90" as="geometry" />
        </mxCell>
        <mxCell id="JF8zU6eetf7OwE7bHXdM-10" style="edgeStyle=orthogonalEdgeStyle;rounded=0;orthogonalLoop=1;jettySize=auto;html=1;exitX=1;exitY=0.5;exitDx=0;exitDy=0;entryX=0.5;entryY=0;entryDx=0;entryDy=0;" edge="1" parent="1" source="JF8zU6eetf7OwE7bHXdM-5" target="JF8zU6eetf7OwE7bHXdM-9">
          <mxGeometry relative="1" as="geometry" />
        </mxCell>
        <mxCell id="JF8zU6eetf7OwE7bHXdM-5" value="是否推送动态" style="text;html=1;strokeColor=none;fillColor=none;align=center;verticalAlign=middle;whiteSpace=wrap;rounded=0;comic=0;fontFamily=Comic Sans MS;" vertex="1" parent="1">
          <mxGeometry x="285" y="410" width="85" height="30" as="geometry" />
        </mxCell>
        <mxCell id="JF8zU6eetf7OwE7bHXdM-15" style="edgeStyle=orthogonalEdgeStyle;rounded=0;orthogonalLoop=1;jettySize=auto;html=1;fontFamily=Comic Sans MS;" edge="1" parent="1" source="JF8zU6eetf7OwE7bHXdM-6" target="JF8zU6eetf7OwE7bHXdM-14">
          <mxGeometry relative="1" as="geometry" />
        </mxCell>
        <mxCell id="JF8zU6eetf7OwE7bHXdM-6" value="关注此项目且在近两周内浏览过该项目" style="rounded=1;whiteSpace=wrap;html=1;comic=0;fontFamily=Comic Sans MS;fillColor=#ffe6cc;strokeColor=#d79b00;" vertex="1" parent="1">
          <mxGeometry x="170" y="500" width="120" height="60" as="geometry" />
        </mxCell>
        <mxCell id="JF8zU6eetf7OwE7bHXdM-8" value="&lt;font face=&quot;Comic Sans MS&quot;&gt;Yes&lt;/font&gt;" style="text;html=1;strokeColor=none;fillColor=none;align=center;verticalAlign=middle;whiteSpace=wrap;rounded=0;comic=0;" vertex="1" parent="1">
          <mxGeometry x="230" y="465" width="40" height="20" as="geometry" />
        </mxCell>
        <mxCell id="JF8zU6eetf7OwE7bHXdM-9" value="不推送动态" style="rounded=1;whiteSpace=wrap;html=1;comic=0;fontFamily=Comic Sans MS;fillColor=#ffe6cc;strokeColor=#d79b00;" vertex="1" parent="1">
          <mxGeometry x="390" y="500" width="120" height="60" as="geometry" />
        </mxCell>
        <mxCell id="JF8zU6eetf7OwE7bHXdM-11" value="&lt;font face=&quot;Comic Sans MS&quot;&gt;No&lt;/font&gt;" style="text;html=1;strokeColor=none;fillColor=none;align=center;verticalAlign=middle;whiteSpace=wrap;rounded=0;comic=0;" vertex="1" parent="1">
          <mxGeometry x="400" y="470" width="40" height="20" as="geometry" />
        </mxCell>
        <mxCell id="JF8zU6eetf7OwE7bHXdM-16" style="edgeStyle=orthogonalEdgeStyle;rounded=0;orthogonalLoop=1;jettySize=auto;html=1;fontFamily=Comic Sans MS;entryX=0.5;entryY=1;entryDx=0;entryDy=0;" edge="1" parent="1" source="JF8zU6eetf7OwE7bHXdM-14" target="JF8zU6eetf7OwE7bHXdM-9">
          <mxGeometry relative="1" as="geometry">
            <mxPoint x="470" y="590" as="targetPoint" />
            <Array as="points">
              <mxPoint x="450" y="630" />
            </Array>
          </mxGeometry>
        </mxCell>
        <mxCell id="JF8zU6eetf7OwE7bHXdM-20" style="edgeStyle=orthogonalEdgeStyle;rounded=0;orthogonalLoop=1;jettySize=auto;html=1;exitX=0.5;exitY=1;exitDx=0;exitDy=0;fontFamily=Comic Sans MS;" edge="1" parent="1" source="JF8zU6eetf7OwE7bHXdM-14" target="JF8zU6eetf7OwE7bHXdM-19">
          <mxGeometry relative="1" as="geometry" />
        </mxCell>
        <mxCell id="JF8zU6eetf7OwE7bHXdM-14" value="&lt;div style=&quot;text-align: left&quot;&gt;&lt;span&gt;1、动态创建时间超过30天&lt;/span&gt;&lt;/div&gt;&lt;div style=&quot;text-align: left&quot;&gt;&lt;span&gt;2、动态未勾选“推送”；&lt;/span&gt;&lt;/div&gt;&lt;div style=&quot;text-align: left&quot;&gt;&lt;span&gt;3、用户本周已受到过通知；&lt;/span&gt;&lt;/div&gt;&lt;div style=&quot;text-align: left&quot;&gt;&lt;span&gt;4、消息模板已发送过；&lt;/span&gt;&lt;/div&gt;" style="rounded=1;whiteSpace=wrap;html=1;comic=0;fontFamily=Comic Sans MS;fillColor=#f8cecc;strokeColor=#b85450;" vertex="1" parent="1">
          <mxGeometry x="242.5" y="600" width="165" height="60" as="geometry" />
        </mxCell>
        <mxCell id="JF8zU6eetf7OwE7bHXdM-17" value="&lt;font face=&quot;Comic Sans MS&quot;&gt;Yes&lt;/font&gt;" style="text;html=1;strokeColor=none;fillColor=none;align=center;verticalAlign=middle;whiteSpace=wrap;rounded=0;comic=0;" vertex="1" parent="1">
          <mxGeometry x="400" y="580" width="40" height="20" as="geometry" />
        </mxCell>
        <mxCell id="JF8zU6eetf7OwE7bHXdM-18" value="&lt;font face=&quot;Comic Sans MS&quot;&gt;No&lt;/font&gt;" style="text;html=1;strokeColor=none;fillColor=none;align=center;verticalAlign=middle;whiteSpace=wrap;rounded=0;comic=0;" vertex="1" parent="1">
          <mxGeometry x="287.5" y="660" width="40" height="20" as="geometry" />
        </mxCell>
        <mxCell id="JF8zU6eetf7OwE7bHXdM-19" value="推送最近一次动态" style="rounded=1;whiteSpace=wrap;html=1;comic=0;fontFamily=Comic Sans MS;fillColor=#d5e8d4;strokeColor=#82b366;" vertex="1" parent="1">
          <mxGeometry x="265" y="690" width="120" height="60" as="geometry" />
        </mxCell>
      </root>
    </mxGraphModel>
  </diagram>
</mxfile>
